<?xml version="1.0" encoding="utf-8"?>
<!-- Generator: Adobe Illustrator 15.0.2, SVG Export Plug-In . SVG Version: 6.00 Build 0)  -->
<!DOCTYPE svg PUBLIC "-//W3C//DTD SVG 1.1//EN" "http://www.w3.org/Graphics/SVG/1.1/DTD/svg11.dtd">
<svg version="1.1" id="Шар_1" xmlns="http://www.w3.org/2000/svg" xmlns:xlink="http://www.w3.org/1999/xlink" x="0px" y="0px"
	 width="20px" height="20px" viewBox="0 0 20 20" enable-background="new 0 0 20 20" xml:space="preserve">
<path fill="none" d="M6.64,9.859c-0.52,2.961-1.469,4.764-2.2,5.774c0.115,0.12,0.21,0.257,0.293,0.402
	c2.055-0.451,3.736-1.211,5.095-2.105C8.689,13.033,7.554,11.734,6.64,9.859z"/>
<path fill="#808080" d="M15.226,14.072l-0.163-0.01c-0.591-0.049-1.136-0.197-1.656-0.391c-0.573,0.513-1.181,0.968-1.804,1.369
	c1.89,0.914,3.429,0.896,3.429,0.896h0.18c-0.144-0.276-0.232-0.586-0.232-0.92C14.979,14.674,15.073,14.354,15.226,14.072z"/>
<path fill="#808080" d="M9.829,13.93c0.632-0.417,1.201-0.855,1.701-1.309c-2.542-1.965-3.954-5.396-4.515-7.063
	c-0.022,1.646-0.159,3.076-0.375,4.3C7.554,11.734,8.689,13.033,9.829,13.93z"/>
<path fill="#D66244" d="M6.793,4.858C6.547,4.966,6.275,5.028,5.989,5.028c-0.324,0-0.625-0.083-0.896-0.22
	C5.071,4.797,5.051,4.786,5.03,4.774c0.008,1.818-0.248,6.085-2.492,10.288c0.146-0.033,0.295-0.055,0.451-0.055
	c0.572,0,1.085,0.241,1.452,0.625c0.73-1.01,1.68-2.813,2.2-5.774c0.215-1.224,0.353-2.654,0.375-4.3
	c0.004-0.267,0.003-0.542,0-0.82C6.942,4.781,6.871,4.824,6.793,4.858z"/>
<path fill="#D66244" d="M15.988,8.028c-0.355,0-0.685-0.1-0.975-0.262c-0.24,0.613-1.22,2.811-3.484,4.855
	c-0.5,0.453-1.068,0.892-1.701,1.309c-1.359,0.895-3.04,1.654-5.095,2.105C4.898,16.327,5,16.659,5,17.018
	c0,0.257-0.053,0.5-0.141,0.726c1.412-0.301,4.185-1.056,6.743-2.702c0.623-0.401,1.23-0.856,1.804-1.369
	c1.611-1.44,2.938-3.347,3.477-5.862C16.612,7.944,16.312,8.028,15.988,8.028z"/>
<path fill="#4D82B8" d="M16.988,13.008c-0.766,0-1.424,0.434-1.763,1.064c-0.152,0.282-0.247,0.602-0.247,0.945
	c0,0.334,0.089,0.644,0.232,0.92c0.335,0.645,1.001,1.09,1.777,1.09c1.111,0,2.012-0.899,2.012-2.01
	C19,13.908,18.1,13.008,16.988,13.008z"/>
<path fill="#4D82B8" d="M15.988,4.008c-1.109,0-2.01,0.899-2.01,2.01c0,0.754,0.421,1.403,1.035,1.748
	c0.29,0.162,0.619,0.262,0.975,0.262c0.323,0,0.624-0.083,0.895-0.218C17.543,7.479,18,6.805,18,6.018
	C18,4.908,17.1,4.008,15.988,4.008z"/>
<path fill="#4D82B8" d="M4.733,16.035c-0.083-0.146-0.178-0.282-0.293-0.402c-0.366-0.384-0.879-0.625-1.452-0.625
	c-0.156,0-0.305,0.021-0.451,0.055c-0.892,0.206-1.559,1.001-1.559,1.955c0,1.11,0.9,2.01,2.01,2.01
	c0.854,0,1.579-0.533,1.871-1.284C4.947,17.518,5,17.274,5,17.018C5,16.659,4.898,16.327,4.733,16.035z"/>
<path fill="#4D82B8" d="M5.989,1.008c-1.11,0-2.01,0.899-2.01,2.01c0,0.761,0.428,1.415,1.051,1.756
	c0.021,0.011,0.041,0.023,0.063,0.034c0.271,0.136,0.572,0.22,0.896,0.22c0.287,0,0.558-0.062,0.805-0.169
	c0.077-0.034,0.149-0.077,0.221-0.12C7.603,4.388,8,3.752,8,3.018C8,1.908,7.1,1.008,5.989,1.008z"/>
</svg>
